<?xml version="1.0" standalone="no"?>
<!DOCTYPE svg PUBLIC "-//W3C//DTD SVG 20010904//EN"
 "http://www.w3.org/TR/2001/REC-SVG-20010904/DTD/svg10.dtd">
<svg version="1.0" xmlns="http://www.w3.org/2000/svg"
 width="246.000000pt" height="227.000000pt" viewBox="0 0 246.000000 227.000000"
 preserveAspectRatio="xMidYMid meet">

<g transform="translate(0.000000,227.000000) scale(0.100000,-0.100000)"
fill="#000000" stroke="none">
<path d="M1255 2159 c-127 -18 -271 -73 -392 -151 l-53 -33 40 -60 c22 -33 40
-62 40 -65 0 -3 -137 -4 -305 -2 l-305 3 0 -350 0 -351 -105 0 -105 0 0 -35 0
-35 305 0 305 0 0 -25 c0 -47 41 -149 82 -203 138 -185 417 -201 584 -35 l47
47 -46 12 c-145 37 -241 160 -241 309 -1 120 65 219 181 277 58 28 68 30 145
26 95 -5 147 -27 207 -87 147 -147 110 -398 -72 -496 -22 -12 -35 -25 -32 -33
9 -25 360 -561 367 -562 18 -1 140 92 204 155 124 122 217 285 265 465 32 121
33 345 1 474 -51 206 -186 417 -348 546 -79 63 -240 149 -324 174 -138 41
-309 54 -445 35z m-754 -376 c31 -18 59 -67 59 -103 0 -88 -104 -148 -180
-104 -56 34 -76 105 -45 164 29 56 109 77 166 43z m264 -18 c0 -25 -4 -31 -27
-33 -19 -2 -28 2 -33 18 -8 27 12 52 39 48 16 -2 21 -10 21 -33z m90 0 c0 -25
-4 -30 -25 -30 -19 0 -26 6 -28 24 -4 25 13 43 38 38 9 -1 15 -13 15 -32z
m-490 -585 l29 -30 -32 0 c-29 0 -32 3 -32 30 0 17 1 30 3 30 2 0 16 -13 32
-30z"/>
<path d="M392 1775 c-46 -20 -68 -75 -53 -127 14 -47 51 -73 104 -73 31 0 45
7 68 33 53 59 34 145 -38 173 -32 12 -41 11 -81 -6z m68 -25 c40 -40 13 -100
-45 -100 -39 0 -55 16 -55 54 0 59 59 87 100 46z"/>
</g>
</svg>
